<svg version="1.1" xmlns="http://www.w3.org/2000/svg" style="display: block;" viewBox="0 0 2048 2048" width="1024" height="1024" preserveAspectRatio="none">
<defs>
	<linearGradient id="Gradient1" gradientUnits="userSpaceOnUse" x1="1020.4" y1="1862.02" x2="1022.6" y2="1689.69">
		<stop class="stop0" offset="0" stop-opacity="1" stop-color="rgb(113,113,113)"/>
		<stop class="stop1" offset="1" stop-opacity="1" stop-color="rgb(170,169,169)"/>
	</linearGradient>
	<linearGradient id="Gradient2" gradientUnits="userSpaceOnUse" x1="1689.02" y1="1451.03" x2="1688.01" y2="1273.94">
		<stop class="stop0" offset="0" stop-opacity="1" stop-color="rgb(114,113,113)"/>
		<stop class="stop1" offset="1" stop-opacity="1" stop-color="rgb(171,170,170)"/>
	</linearGradient>
	<linearGradient id="Gradient3" gradientUnits="userSpaceOnUse" x1="1020.44" y1="357.184" x2="1017.17" y2="205.307">
		<stop class="stop0" offset="0" stop-opacity="1" stop-color="rgb(113,113,113)"/>
		<stop class="stop1" offset="1" stop-opacity="1" stop-color="rgb(160,159,159)"/>
	</linearGradient>
	<linearGradient id="Gradient4" gradientUnits="userSpaceOnUse" x1="352.577" y1="1451.03" x2="353.432" y2="1272.96">
		<stop class="stop0" offset="0" stop-opacity="1" stop-color="rgb(115,114,114)"/>
		<stop class="stop1" offset="1" stop-opacity="1" stop-color="rgb(170,169,169)"/>
	</linearGradient>
	<linearGradient id="Gradient5" gradientUnits="userSpaceOnUse" x1="1689.24" y1="771.133" x2="1687.21" y2="621.897">
		<stop class="stop0" offset="0" stop-opacity="1" stop-color="rgb(114,113,113)"/>
		<stop class="stop1" offset="1" stop-opacity="1" stop-color="rgb(161,160,159)"/>
	</linearGradient>
	<linearGradient id="Gradient6" gradientUnits="userSpaceOnUse" x1="353.617" y1="772.012" x2="353.412" y2="615.077">
		<stop class="stop0" offset="0" stop-opacity="1" stop-color="rgb(115,115,115)"/>
		<stop class="stop1" offset="1" stop-opacity="1" stop-color="rgb(163,162,162)"/>
	</linearGradient>
</defs>
<path transform="translate(0,0)" fill="rgb(84,83,83)" d="M 992.032 807.1 C 1001.65 808.967 1039.94 807.749 1050.12 806.795 C 1109.59 815.103 1158.84 845.403 1195.1 892.933 C 1198.27 897.085 1204.52 905.742 1206.14 910.513 C 1208.25 914.936 1230.1 964.532 1230.49 964.95 C 1241.05 986.573 1240.05 1057.27 1230.54 1079.68 C 1226.95 1086.69 1222.54 1098.75 1219.04 1106.62 C 1216.29 1112.79 1207.68 1129.24 1206.03 1134.34 C 1178.14 1182.3 1132.43 1217.31 1078.85 1231.73 C 1068.91 1234.47 1060.06 1236.17 1049.93 1237.78 C 1044.23 1237.46 1033.24 1238.66 1026.79 1238.58 C 1014.8 1238.43 1002.82 1237.81 990.871 1238.22 C 925.47 1227.56 866.927 1192.79 833.355 1134.52 C 832.677 1131.43 822.127 1109.59 820.072 1104.63 C 817.303 1097.95 812.975 1086.09 810.136 1079.92 C 800.033 1058.19 799.788 984.418 810.417 963.769 C 811.794 962.472 817.035 947.669 818.277 944.7 C 823.384 932.495 829.803 921.077 835.116 909.005 C 841.249 894.089 859.269 874.455 871.064 863.55 C 898.749 837.855 932.554 819.681 969.256 810.759 C 975.558 809.213 985.982 806.841 992.032 807.1 z"/>
<path transform="translate(0,0)" fill="rgb(118,117,118)" d="M 1015.93 862.465 C 1104.15 860.292 1177.47 929.938 1179.83 1018.15 C 1182.2 1106.35 1112.71 1179.83 1024.51 1182.38 C 936.034 1184.94 862.286 1115.2 859.915 1026.72 C 857.544 938.241 927.451 864.645 1015.93 862.465 z"/>
<path transform="translate(0,0)" fill="rgb(84,83,83)" d="M 322.327 839.556 C 322.222 835.986 323.099 831.407 320.589 829.663 C 316.149 826.576 309.169 826.725 304.215 824.94 C 278.53 815.683 257.69 801.118 240.384 780.243 C 213.641 748.32 200.992 706.915 205.329 665.497 C 209.129 625.593 229.342 591.312 260.254 566.24 C 324.222 514.358 418.666 525.724 470.648 589.194 C 471.445 592.904 474.948 598.517 477.132 601.823 C 485.386 614.32 490.276 628.283 497.214 641.33 C 504.266 656.211 504.802 685.962 502.364 702.141 C 499.114 710.559 496.228 721.832 492.835 730.914 C 490.569 736.98 482.187 755.312 481.292 759.65 C 463.943 795.391 417.84 822.763 380.096 830.868 C 369.203 830.934 359.319 832.588 349.078 832.44 C 340.726 832.32 333.261 829.626 323.877 829.257 C 321.307 833.775 323.94 833.261 322.327 839.556 z"/>
<path transform="translate(0,0)" fill="url(#Gradient6)" d="M 287.047 621.11 C 319.947 585.616 374.827 581.96 412.144 612.777 C 440.984 636.594 452.38 675.593 440.902 711.191 C 429.425 746.79 397.395 771.787 360.075 774.273 C 322.755 776.759 287.693 756.231 271.595 722.469 C 255.498 688.707 261.621 648.542 287.047 621.11 z"/>
<path transform="translate(0,0)" fill="rgb(164,163,163)" d="M 287.047 621.11 C 319.947 585.616 374.827 581.96 412.144 612.777 C 404.751 621.285 374.279 615.435 362.686 614.698 C 349.851 613.882 315.544 621.112 306.158 615.898 C 300.564 617.449 292.624 623.973 287.047 621.11 z"/>
<path transform="translate(0,0)" fill="rgb(84,83,83)" d="M 1573.43 588.205 C 1577.24 580.395 1588.34 570.641 1595.21 565.029 C 1674.71 500.061 1796.39 535.562 1829.04 633.189 C 1842.01 672.245 1838.99 714.848 1820.63 751.68 C 1802.81 786.777 1761.5 821.315 1722.13 827.544 C 1708.02 827.776 1693.52 831.149 1678.07 829.06 C 1675.33 828.69 1666.43 828.26 1664.12 829.841 C 1661.52 828.348 1646.19 825.538 1641.69 823.846 C 1608.66 811.441 1576.31 788.034 1560.48 756.282 C 1559.91 751.907 1556.69 746.166 1554.81 741.993 C 1548.14 727.182 1546.46 711.764 1542.69 696.137 C 1540.15 682.465 1541.76 655.878 1546.23 642.542 C 1544.05 644.897 1573.03 589.195 1573.43 588.205 z"/>
<path transform="translate(0,0)" fill="url(#Gradient5)" d="M 1619.72 622.773 C 1651.6 585.864 1706.87 580.561 1745.18 610.737 C 1774.45 633.794 1786.75 672.34 1776.25 708.091 C 1765.74 743.843 1734.55 769.609 1697.46 773.167 C 1660.36 776.726 1624.84 757.361 1607.73 724.259 C 1590.62 691.156 1595.37 650.975 1619.72 622.773 z"/>
<path transform="translate(0,0)" fill="rgb(164,163,163)" d="M 1619.72 622.773 C 1651.6 585.864 1706.87 580.561 1745.18 610.737 C 1747.42 614.728 1752.45 618.345 1753.2 621.455 C 1750.67 623.316 1747.95 623.818 1744.86 623.771 C 1723.62 623.45 1701.77 623.246 1680.64 623.186 C 1667.97 623.149 1633.04 626.895 1622.9 625.415 C 1621.41 624.305 1621.02 624.088 1619.72 622.773 z"/>
<path transform="translate(0,0)" fill="rgb(84,83,83)" d="M 321.598 1217.67 C 328.927 1218.69 343.876 1214.94 352.259 1214.86 C 359.407 1214.78 376.229 1217.71 381.91 1216.4 C 418.855 1221.97 463.961 1253.47 481.06 1286.51 C 490.108 1310.96 493.908 1315.85 500.657 1343.73 C 505.34 1358.89 501.847 1392.71 495.593 1407.05 C 496.924 1405.61 464.983 1460.62 465.483 1459.11 C 450.822 1483.93 399.877 1507.86 371.503 1510.54 C 331.758 1514.3 291.739 1505.34 260.463 1479.82 C 229.024 1454.24 209.213 1417.08 205.504 1376.71 C 201.946 1337.3 213.942 1298.05 238.929 1267.35 C 257.535 1244.84 291.914 1220.46 321.598 1217.67 z"/>
<path transform="translate(0,0)" fill="url(#Gradient4)" d="M 341.75 1272.43 C 391.608 1265.83 437.316 1301.06 443.629 1350.95 C 449.942 1400.85 414.45 1446.35 364.52 1452.38 C 314.993 1458.36 269.936 1423.21 263.674 1373.72 C 257.411 1324.23 292.295 1278.97 341.75 1272.43 z"/>
<path transform="translate(0,0)" fill="rgb(84,83,83)" d="M 883.76 328.942 C 883.431 328.259 883.115 327.57 882.811 326.876 C 867.308 291.196 866.571 250.827 880.762 214.606 C 893.247 183.006 916.129 157.264 945.719 140.667 C 1068.62 71.7353 1211.55 194.369 1156.53 327.094 C 1153.44 330.613 1147.8 340.724 1144.7 345.367 C 1137.82 355.696 1130.82 364.854 1123.28 374.723 C 1111.23 388.316 1086.03 402.181 1068.64 406.835 C 1065.75 407.607 1050.99 412.228 1049.6 413.035 C 1046.28 411.83 1035.79 414.338 1030.39 414.563 C 1016.8 415.128 1005.04 412.532 991.531 413.169 C 973.701 411.117 929.646 390.26 917.968 376.111 C 913.557 370.157 907.814 364.527 903.114 357.782 C 896.445 348.211 890.354 338.525 883.76 328.942 z"/>
<path transform="translate(0,0)" fill="url(#Gradient3)" d="M 961.07 199.061 C 994.838 171.003 1043.86 171.164 1077.44 199.444 C 1106.62 224.017 1117.3 264.227 1104.17 300.043 C 1091.03 335.86 1056.88 359.625 1018.73 359.499 C 980.578 359.374 946.586 335.386 933.683 299.483 C 920.78 263.581 931.727 223.442 961.07 199.061 z"/>
<path transform="translate(0,0)" fill="rgb(164,163,163)" d="M 961.07 199.061 C 994.838 171.003 1043.86 171.164 1077.44 199.444 C 1079.14 203.153 1079.33 201.651 1078.53 204.554 C 1071.86 209.129 1060.64 207.421 1052.41 207.867 C 1033.66 208.883 1014.78 208.468 996.007 208.679 C 981.128 208.846 966.41 210.903 951.517 210.308 C 954.762 207.037 959.347 203.096 961.07 199.061 z"/>
<path transform="translate(0,0)" fill="rgb(84,83,83)" d="M 1663.95 1216.92 C 1667.42 1217.15 1725.42 1219.31 1724.74 1219.53 C 1752.83 1222.79 1788.88 1249.54 1805.79 1271.04 C 1831.05 1303.14 1841.1 1345.54 1835.4 1385.63 C 1824 1465.69 1749.94 1521.1 1669.87 1509.29 C 1634.99 1504.14 1599.38 1487.47 1577.98 1459.72 C 1577.52 1459.12 1577.07 1458.51 1576.64 1457.89 C 1573.1 1450.63 1567.35 1444.79 1563.61 1438.03 C 1558.65 1429.06 1554.41 1413.67 1548.6 1405.47 C 1541.52 1390.66 1542.3 1362.79 1544.24 1347.06 C 1549.17 1321.41 1552.05 1313.45 1562.67 1289.47 C 1577.21 1254.06 1627.27 1223.16 1663.95 1216.92 z"/>
<path transform="translate(0,0)" fill="url(#Gradient2)" d="M 1682.31 1272.42 C 1731.86 1268.62 1775.2 1305.51 1779.37 1355.03 C 1783.54 1404.55 1746.99 1448.17 1697.49 1452.71 C 1647.47 1457.31 1603.29 1420.27 1599.07 1370.22 C 1594.86 1320.16 1632.23 1276.26 1682.31 1272.42 z"/>
<path transform="translate(0,0)" fill="rgb(84,83,83)" d="M 991.85 1631.24 C 1011.07 1627.27 1030.9 1627.21 1050.15 1631.05 C 1078.08 1636.63 1103.77 1650.23 1124.09 1670.19 C 1137.9 1683.75 1148.88 1699.91 1156.4 1717.74 C 1182.06 1778.57 1163.84 1849.06 1111.91 1889.83 C 1059.98 1930.61 987.188 1931.59 934.177 1892.23 C 881.165 1852.87 861.049 1782.91 885.061 1721.4 C 892.508 1702.32 903.875 1685.02 918.427 1670.61 C 938.574 1650.66 964.081 1636.98 991.85 1631.24 z"/>
<path transform="translate(0,0)" fill="url(#Gradient1)" d="M 991.311 1690.54 C 1013.02 1683.47 1026.23 1683.04 1048.21 1688.93 C 1072.47 1697.06 1090.94 1711.59 1102.42 1734.8 C 1113.04 1756.41 1114.56 1781.37 1106.64 1804.11 C 1098.81 1826.53 1082.39 1844.91 1060.99 1855.2 C 1039.56 1865.44 1014.95 1866.76 992.558 1858.87 C 969.358 1850.79 950.493 1833.54 940.377 1811.15 C 930.885 1790.3 930.598 1763.72 938.773 1742.33 C 947.172 1720.14 964.175 1702.28 985.927 1692.79 C 987.711 1692.02 989.506 1691.27 991.311 1690.54 z"/>
<path transform="translate(0,0)" fill="rgb(164,163,163)" d="M 991.311 1690.54 C 1013.02 1683.47 1026.23 1683.04 1048.21 1688.93 C 1040.68 1692.59 1001.16 1691.87 991.311 1690.54 z"/>
<path transform="translate(0,0)" fill="rgb(118,117,118)" d="M 465.483 1459.11 C 464.983 1460.62 496.924 1405.61 495.593 1407.05 L 847.173 1626.36 C 858.592 1633.63 912.924 1664.83 918.427 1670.61 C 903.875 1685.02 892.508 1702.32 885.061 1721.4 C 873.99 1713.18 858.441 1704.24 846.443 1696.81 L 797.604 1666.04 L 621.183 1556.79 L 511.969 1488.73 C 502.817 1482.97 473.13 1462.89 465.483 1459.11 z"/>
<path transform="translate(0,0)" fill="rgb(118,117,118)" d="M 1123.28 374.723 C 1130.82 364.854 1137.82 355.696 1144.7 345.367 C 1147.8 340.724 1153.44 330.613 1156.53 327.094 C 1173.78 337.141 1192.51 349.769 1209.57 360.524 L 1294.06 413.364 L 1464.04 519.989 C 1474.12 526.367 1568.74 587.308 1573.43 588.205 C 1573.03 589.195 1544.05 644.897 1546.23 642.542 C 1527.58 629.07 1503.01 614.494 1483.26 602.219 L 1399.83 549.777 C 1306.85 492.695 1214.65 434.338 1123.28 374.723 z"/>
<path transform="translate(0,0)" fill="rgb(118,117,118)" d="M 1548.6 1405.47 C 1554.41 1413.67 1558.65 1429.06 1563.61 1438.03 C 1567.35 1444.79 1573.1 1450.63 1576.64 1457.89 L 1307.07 1624.8 L 1217.68 1680.47 C 1197.67 1692.98 1177.08 1706.56 1156.4 1717.74 C 1148.88 1699.91 1137.9 1683.75 1124.09 1670.19 C 1134.78 1662.55 1153.65 1651.54 1165.26 1644.35 L 1226.65 1605.81 L 1412.11 1490.72 C 1457.13 1463.12 1504.86 1435.03 1548.6 1405.47 z"/>
<path transform="translate(0,0)" fill="rgb(118,117,118)" d="M 883.76 328.942 C 890.354 338.525 896.445 348.211 903.114 357.782 C 907.814 364.527 913.557 370.157 917.968 376.111 C 906.934 381.955 892.859 391.536 881.891 398.522 L 813.814 441.873 L 587.589 584.263 C 557.969 602.758 527.202 623.878 497.214 641.33 C 490.276 628.283 485.386 614.32 477.132 601.823 C 474.948 598.517 471.445 592.904 470.648 589.194 C 478.681 582.662 504.45 567.173 513.995 561.222 C 543.905 542.948 573.65 524.406 603.225 505.596 L 768.358 401.793 C 804.832 378.597 846.934 350.095 883.76 328.942 z"/>
<path transform="translate(0,0)" fill="rgb(118,117,118)" d="M 1206.03 1134.34 C 1207.68 1129.24 1216.29 1112.79 1219.04 1106.62 C 1222.54 1098.75 1226.95 1086.69 1230.54 1079.68 C 1249.1 1092.46 1270.5 1105.14 1289.66 1117.36 L 1458.32 1223.29 C 1491.07 1243.68 1531.25 1267.87 1562.67 1289.47 C 1552.05 1313.45 1549.17 1321.41 1544.24 1347.06 C 1530.63 1337.63 1514.31 1328.13 1500.09 1319.37 L 1438.68 1281.02 L 1206.03 1134.34 z"/>
<path transform="translate(0,0)" fill="rgb(118,117,118)" d="M 1542.69 696.137 C 1546.46 711.764 1548.14 727.182 1554.81 741.993 C 1556.69 746.166 1559.91 751.907 1560.48 756.282 C 1550.68 760.747 1520.75 780.438 1510.67 786.786 L 1413.06 848.403 L 1308.92 914.763 C 1284.31 930.129 1253.7 948.039 1230.49 964.95 C 1230.1 964.532 1208.25 914.936 1206.14 910.513 C 1233.19 892.56 1262.26 874.573 1289.72 857.002 L 1426.01 770.098 C 1465.31 745.436 1504.13 722.093 1542.69 696.137 z"/>
<path transform="translate(0,0)" fill="rgb(118,117,118)" d="M 991.531 413.169 C 1005.04 412.532 1016.8 415.128 1030.39 414.563 C 1035.79 414.338 1046.28 411.83 1049.6 413.035 C 1050.81 506.732 1049.18 601.083 1049.99 694.832 C 1050.3 730.716 1048.85 771.387 1050.12 806.795 C 1039.94 807.749 1001.65 808.967 992.032 807.1 C 990.496 765.573 991.75 722.986 991.643 681.227 L 991.531 413.169 z"/>
<path transform="translate(0,0)" fill="rgb(118,117,118)" d="M 481.06 1286.51 C 565.267 1236.96 647.042 1180.81 730.621 1130.04 C 757.075 1113.97 784.452 1097.19 810.136 1079.92 C 812.975 1086.09 817.303 1097.95 820.072 1104.63 C 822.127 1109.59 832.677 1131.43 833.355 1134.52 C 812.778 1148.83 784.308 1165.99 762.687 1179.33 C 731.191 1198.65 699.853 1218.23 668.676 1238.06 C 619.235 1269.38 570.292 1301.39 520.456 1332.08 C 513.867 1336.14 507.46 1340.02 500.657 1343.73 C 493.908 1315.85 490.108 1310.96 481.06 1286.51 z"/>
<path transform="translate(0,0)" fill="rgb(118,117,118)" d="M 990.871 1238.22 C 1002.82 1237.81 1014.8 1238.43 1026.79 1238.58 C 1033.24 1238.66 1044.23 1237.46 1049.93 1237.78 L 1050.15 1631.05 C 1030.9 1627.21 1011.07 1627.27 991.85 1631.24 L 992.023 1362.97 L 991.449 1287.68 C 991.472 1272.62 992.465 1252.96 990.871 1238.22 z"/>
<path transform="translate(0,0)" fill="rgb(118,117,118)" d="M 481.292 759.65 C 482.187 755.312 490.569 736.98 492.835 730.914 C 496.228 721.832 499.114 710.559 502.364 702.141 C 542.809 730.253 581.072 752.35 622.975 777.824 L 759.158 861.681 C 768.442 867.372 830.526 903.748 835.116 909.005 C 829.803 921.077 823.384 932.495 818.277 944.7 C 817.035 947.669 811.794 962.472 810.417 963.769 C 803.584 956.834 745.775 921.88 733.459 914.21 L 481.292 759.65 z"/>
<path transform="translate(0,0)" fill="rgb(118,117,118)" d="M 1664.12 829.841 C 1666.43 828.26 1675.33 828.69 1678.07 829.06 C 1693.52 831.149 1708.02 827.776 1722.13 827.544 C 1720.8 920.19 1721.94 1017.21 1722.59 1109.99 L 1722.95 1181.93 C 1722.96 1189.1 1722.51 1212.21 1723.53 1218.4 L 1724.74 1219.53 C 1725.42 1219.31 1667.42 1217.15 1663.95 1216.92 C 1662.67 1088.37 1664.4 958.632 1664.12 829.841 z"/>
<path transform="translate(0,0)" fill="rgb(118,117,118)" d="M 322.327 839.556 C 323.94 833.261 321.307 833.775 323.877 829.257 C 333.261 829.626 340.726 832.32 349.078 832.44 C 359.319 832.588 369.203 830.934 380.096 830.868 C 380.081 861.94 380.04 1212.8 381.91 1216.4 C 376.229 1217.71 359.407 1214.78 352.259 1214.86 C 343.876 1214.94 328.927 1218.69 321.598 1217.67 C 322.425 1204.71 322.037 1187.92 322.064 1174.75 L 322.059 1099.9 C 322 1013.76 321.04 925.552 322.327 839.556 z"/>
</svg>